<?xml version="1.0" encoding="UTF-8" standalone="no"?>
<!-- Created with Inkscape (http://www.inkscape.org/) -->

<svg
   version="1.1"
   id="svg2"
   width="1021.9944"
   height="821.4707"
   viewBox="0 0 1021.9944 821.4707"
   sodipodi:docname="3817394_10846.eps"
   inkscape:export-filename="icon.svg"
   inkscape:export-xdpi="96.188393"
   inkscape:export-ydpi="96.188393"
   xmlns:inkscape="http://www.inkscape.org/namespaces/inkscape"
   xmlns:sodipodi="http://sodipodi.sourceforge.net/DTD/sodipodi-0.dtd"
   xmlns="http://www.w3.org/2000/svg"
   xmlns:svg="http://www.w3.org/2000/svg">
  <defs
     id="defs6">
    <inkscape:path-effect
       effect="offset"
       id="path-effect4784"
       is_visible="true"
       lpeversion="1.2"
       linejoin_type="miter"
       unit="px"
       offset="10"
       miter_limit="4"
       attempt_force_join="false"
       update_on_knot_move="true" />
    <inkscape:path-effect
       effect="bend_path"
       id="path-effect3737"
       is_visible="true"
       lpeversion="1"
       bendpath="m 2118.2064,3228.4523 c 113.0809,0.022 215.0331,-18.5436 242.9224,-52.5084"
       prop_scale="1"
       scale_y_rel="false"
       vertical="false"
       hide_knot="false"
       bendpath-nodetypes="cc" />
    <inkscape:path-effect
       effect="bend_path"
       id="path-effect2998"
       is_visible="true"
       lpeversion="1"
       bendpath="m 2118.2064,3228.4523 c 113.0809,0.022 215.0331,-18.5436 242.9224,-52.5084"
       prop_scale="1"
       scale_y_rel="false"
       vertical="false"
       hide_knot="false"
       bendpath-nodetypes="cc" />
  </defs>
  <sodipodi:namedview
     id="namedview4"
     pagecolor="#505050"
     bordercolor="#eeeeee"
     borderopacity="1"
     inkscape:showpageshadow="0"
     inkscape:pageopacity="0"
     inkscape:pagecheckerboard="0"
     inkscape:deskcolor="#505050"
     showgrid="false" />
  <g
     id="g10"
     inkscape:groupmode="layer"
     inkscape:label="Page 1"
     transform="matrix(1.3333333,0,0,-1.3333333,-1.0058241,468.45543)">
    <g
       id="g12"
       transform="scale(0.1)">
      <g
         id="g5339"
         transform="matrix(1.1007972,0,0,1.1007972,-8723.502,-525.64383)">
        <path
           id="path4587"
           style="fill:#faf9f9;fill-opacity:1;fill-rule:nonzero;stroke:none;stroke-width:5.99656"
           d="m 9860.8164,-1927.6113 c -3.598,-0.08 -7.1883,-0.074 -10.7695,0.014 -86.6414,2.1094 -167.2943,52.444 -198.4199,137.9668 l -280.7286,771.2793 -64.25,-23.3808 -114.5918,314.87107 32.3418,11.7793 c -124.256,364.14982 -174.8568,713.6350426 -193.998,976.27344 -7.566,103.81337 -18.0485,295.52708 -5.9004,455.05468 l -1.6875,12.50391 c -5.5979,35.43874 -22.7599,113.95466 -64.8633,173.27148 -4.544,6.3783 -9.154,10.37735 -18.0937,19.99805 -8.9999,9.68365 -11.2064,13.58341 -15.3731,16.9668 0,0 1.9174,-1.72701 -3.9277,2.70898 -10.278,7.79887 -20.7219,13.73129 -31.6992,17.96289 l -7.6621,2.36328 c -13.9675,4.30679 -29.5432,6.73113 -46.7989,6.14649 -0.7315,-0.0408 0.4629,0.005 -2.0097,-0.11328 0.1387,0.005 7.5307,0.25027 -2.2227,-0.33008 0,0 0.1371,0.006 -0.053,-0.004 l -0.029,-0.002 c -0.047,-0.003 0,-0.001 -0.047,-0.004 l -0.1152,-0.008 c -20.6325,-1.22777 -44.1801,-5.64892 -71.6485,-15.64648 l -259.2636,-94.36524 c -209.0195,-76.0764 -417.6181,47.857 -458.8907,268.88669 l -0,0.016 -101.4121,544.5058 c -39.5617,212.3181 89.2613,444.6247 289.5078,517.5098 l 781.545,284.4551 c 3.3505,32.325 17.827,64.396 55.9785,78.2851 l 647.4199,235.6348 c 38.1619,13.8892 69.8607,-1.3739 93.1992,-23.9785 l 822.0954,299.2129 203.694,-37.9122 177.404,64.5821 26.15,-71.8477 858.465,312.4531 272.703,-30.3632 1.088,-2.9864 53.049,19.3086 34.064,-93.5859 184.163,38.4316 86.095,31.3379 10.328,-28.3769 c 213.344,75.1975 429.568,144.031 648.733,204.1406 l -0.02,-0 c 224.796,61.7237 454.484,115.1775 688.448,153.0215 163.697,26.7932 334.52,46.6888 508.974,47.7636 l 165.928,1.0235 -6.047,-6.0469 c 59.591,-4.4425 116.995,-15.3438 168.004,-33.1914 63.832,-21.9086 120.966,-57.5364 154.615,-104.6172 38.166,-53.3999 40.543,-117.1786 6.137,-170.918 -32.153,-50.4423 -79.812,-75.5302 -120.932,-88.7285 -40.109,-12.8735 -86.181,-18.0004 -131.052,-18.3535 -40.578,-0.6648 -89.772,0.8691 -132.748,2.8789 l -0.692,0.033 -0.689,0.047 c -17.767,1.1929 -35.956,2.0471 -54.563,2.6465 -0,2e-4 -0.01,0 -0.02,0 -159.773,4.9883 -326.423,-13.9126 -499.36,-41.3711 -0.02,-0 -0.03,-0.01 -0.05,-0.01 -213.45,-34.3391 -426.867,-84.1014 -640.417,-142.5489 l 0.02,0 c -206.093,-56.4722 -410.522,-121.4982 -613.371,-192.8711 l 11.268,-30.9668 -55.999,-20.3907 -194.578,-103.4492 33.969,-93.334 -53.053,-19.3046 0.188,-0.5137 -188.986,-199.3574 -858.553,-312.4903 26.144,-71.8281 -177.318,-64.543 -131.777,-160.0136 -760.305,-276.7403 c 13.812,-154.489 130.43,-311 130.43,-311 l 57.035,-73.791 -429.295,-156.25195 c -8.93,-314.80226 48.519,-666.71788 92.808,-884.837888 14.828,-72.886513 96.397,-122.327574 183.051,-99.7675776 l 941.916,274.1445356 21.754,-17.46875 c 67.512,-34.2583 107.399,-105.22129 129.004,-157.720708 l 20.248,7.373048 114.623,-314.90234 -48.195,-17.54883 280.715,-771.26758 c 41.507,-114.03366 -24.009,-236.10476 -138.647,-277.83006 l -1746.5759,-635.6992 c -24.8846,-9.0575 -50.4116,-13.7191 -75.5977,-14.2754 z m 4757.6196,5174.9648 c 0.145,0 0.311,-5e-4 0.457,0 l -0.627,-0.01 c 0.06,4e-4 0.113,0.01 0.17,0.01 z m 251.984,107.082 c 0.02,0.035 0.05,0.067 0.07,0.1016 l -0.117,-0.1836 c 0.02,0.027 0.03,0.055 0.05,0.082 z m -160.752,275.5352 c -0.06,0.021 -0.118,0.046 -0.178,0.066 l 0.446,-0.1543 c -0.09,0.031 -0.18,0.057 -0.268,0.088 z m -177.107,33.9004 -0.567,0.037 c 0.07,-0 0.138,-0.011 0.207,-0.016 0.121,-0.01 0.239,-0.013 0.36,-0.022 z"
           inkscape:original-d="m 14382.203,3600.0539 c -169.902,-1.0468 -336.791,-20.4154 -498.516,-46.8897 -231.015,-37.367 -458.175,-90.2042 -681.284,-151.4648 -239.166,-65.5953 -475.037,-141.6317 -707.666,-225.2344 l -10.137,27.8467 -36.343,-13.2276 -0.527,1.3916 -236.499,-49.3506 66.46,-182.622 -97.412,267.6269 -53.042,-19.3066 -9.932,27.2754 -214.834,23.9209 -846.826,-308.2178 55.474,-152.417 -60.674,-22.0752 -81.621,224.2529 -144.463,-52.5879 -2.93,8.0274 -187.163,34.834 -852.7587,-310.3711 c -12.7031,28.0049 -31.5418,46.4185 -45.0586,41.499 l -647.4171,-235.6348 c -13.5173,-4.921 -16.1226,-31.1326 -7.8369,-60.7617 L 8251.5092,2124.59 c -169.6546,-61.7503 -279.7094,-259.1839 -245.8301,-441.0059 l 101.4112,-544.4971 c 33.9574,-181.85432 198.8974,-279.13933 368.6133,-217.36817 l 259.2627,94.36527 c 33.4157,12.1622 63.4647,18.0144 91.0107,19.6435 0.013,8e-4 0.031,-7e-4 0.044,0 1.0001,0.059 2.1274,0.3343 3.1202,0.3809 0.3357,0.016 0.7198,0.1175 1.0547,0.1318 26.2905,1.1241 49.7075,-2.523 71.0742,-9.1113 0,0 0.025,0 0.029,0 1.8585,-0.5736 3.9335,-0.8556 5.7568,-1.4795 l 0.015,-0.015 c 20.4145,-6.9915 38.4194,-17.3339 54.6679,-29.66314 1.8563,-1.4088 3.8784,-2.62151 5.6836,-4.08691 8.4467,-6.85874 14.9672,-15.54969 22.3389,-23.48145 8.1571,-8.77843 16.7686,-17.14283 23.7012,-26.87988 50.5844,-71.22722 70.4755,-162.79853 76.7285,-202.61719 l 2.6953,-19.96582 0.1025,-0.11719 c 0,0 -58.3613,-715.5171954 217.9981,-1474.87797 l -31.6114,-11.51367 67.9981,-186.84082 64.248,23.3789 304.0284,-835.29786 c 27.468,-75.4728 115.8834,-112.6757 197.4609,-82.9834 l 1746.5771,635.6982 c 81.579,29.6923 125.396,115.0311 97.925,190.503 l -304.014,835.28321 48.193,17.54882 -68.012,186.855478 -21.724,-7.9101562 -0.293,0.7763672 c -9.078,24.940764 -38.198,149.420431 -123.193,186.884771 l -0.09,0.0732 -909.302,-264.653325 c -122.656,-32.177435 -243.976,36.76921 -267.422,152.021488 -46.836,230.658117 -109.137,612.752647 -92.519,946.728547 l 384.829,140.0684 c -155.678,201.4114 -145.591,400.0342 -145.591,400.0342 l 788.599,287.0361 121.01,146.9385 -2.944,8.0859 144.478,52.5879 -81.621,224.2383 60.673,22.0899 55.474,-152.417 846.812,308.2178 148.945,157.1191 -9.082,24.9463 53.056,19.3066 -30.922,84.961 215.537,114.5947 -1.948,5.2441 33.955,12.3633 -11.47,31.5235 c 225.372,80.9177 452.995,154.3176 682.881,217.3095 215.167,58.8898 431.107,109.2796 647.636,144.1114 174.685,27.7399 346.553,47.3859 512.374,42.2021 19.264,-0.6204 38.269,-1.514 56.953,-2.7685 42.526,-1.9888 90.22,-3.462 128.877,-2.8125 40.745,0.3097 79.092,4.8876 110.918,15.1025 31.472,10.1015 63.594,27.9425 84.345,60.542 19.46,30.3566 18.953,62.2755 -4.16,94.6143 -22.927,32.0789 -66.048,60.8595 -121.45,79.8486 -47.1,16.5088 -101.426,26.6859 -159.653,30.3223 -24.403,1.728 -48.611,2.8416 -72.554,3.4423 -24.388,0.6307 -48.722,0.8527 -72.993,0.7032 z"
           inkscape:path-effect="#path-effect4784" />
        <g
           id="g3280"
           transform="matrix(9.4185179,0,0,8.7199456,-10361.27,-26095.824)">
          <path
             d="m 2189.2769,3172.7749 -54.2384,-21.3226 15.459,-45.8753 54.2381,21.3226 c -16.5289,23.0978 -15.4587,45.8753 -15.4587,45.8753"
             style="fill:#011524;fill-opacity:1;fill-rule:nonzero;stroke:none;stroke-width:0.661689"
             id="path3435" />
          <path
             d="m 2182.0949,3162.3255 -38.3269,-15.0675 10.9227,-32.4135 38.3268,15.0673 c -11.6843,16.327 -10.9226,32.4137 -10.9226,32.4137"
             style="fill:#011524;fill-opacity:1;fill-rule:nonzero;stroke:none;stroke-width:0.661689"
             id="path3432" />
          <path
             d="m 2133.8514,3304.928 -68.7383,-27.023 c -1.6042,-0.6308 -1.8478,-4.2804 -0.5396,-8.1573 l 0.046,-0.1348 c 1.3058,-3.8757 3.6636,-6.5048 5.2675,-5.8739 l 68.7385,27.023 c 1.604,0.6307 1.848,4.2801 0.5397,8.1569 l -0.045,0.1349 c -1.306,3.8759 -3.6636,6.5048 -5.268,5.8741"
             style="fill:#012a4a;fill-opacity:1;fill-rule:nonzero;stroke:none;stroke-width:1.02851"
             id="path3429" />
          <path
             d="m 2273.0065,3205.6913 -273.0132,-107.3292 c -18.0194,-7.0839 -35.5309,4.0723 -39.1363,24.9273 l -10.7682,62.4432 c -3.5971,20.8513 8.0884,43.4926 26.1013,50.5741 l 252.9857,99.4557 19.8728,-3.9961 36.8053,-109.2226 -12.8474,-16.8524"
             style="fill:#011524;fill-opacity:1;fill-rule:nonzero;stroke:none;stroke-width:0.661689"
             id="path3426" />
          <path
             d="m 2300.8811,3229.5005 -15.3394,-6.0303 -36.1829,107.376 15.3394,6.0304 36.1829,-107.3761"
             style="fill:#011524;fill-opacity:1;fill-rule:nonzero;stroke:none;stroke-width:0.661689"
             id="path3423" />
          <path
             d="m 2182.1538,3200.0774 -110.8578,-43.5816 c -21.7065,-8.5334 -45.2325,2.1454 -52.5472,23.852 l -0.268,0.7958 c -7.3168,21.7128 4.3501,46.2268 26.0567,54.7604 l 110.8578,43.5813 26.7585,-79.4079"
             style="fill:#2a6f97;fill-opacity:1;fill-rule:nonzero;stroke:none;stroke-width:0.661689"
             id="path3420" />
          <path
             d="m 2285.5417,3223.4702 -12.5352,-17.7789 -43.8307,130.0711 19.8728,-3.9961 36.4931,-108.2961"
             style="fill:#011524;fill-opacity:1;fill-rule:nonzero;stroke:none;stroke-width:0.661689"
             id="path3417" />
          <path
             d="m 2298.6567,3257.75 -6.4417,-2.5326 -18.851,55.9421 6.4418,2.5324 18.8509,-55.9419"
             style="fill:#011524;fill-opacity:1;fill-rule:nonzero;stroke:none;stroke-width:0.661689"
             id="path3414" />
          <path
             d="m 2394.4565,3275.6178 -89.91,-35.3463 -30.6306,90.8987 89.9103,35.3463 22.8093,-2.743 23.6346,-70.1373 -15.8136,-18.0184"
             style="fill:#012a4a;fill-opacity:1;fill-rule:nonzero;stroke:none;stroke-width:0.661689"
             id="path3411" />
          <path
             d="m 2326.5536,3253.4298 -20.1271,-7.9125 -27.9759,83.0207 20.1272,7.9125 27.9758,-83.0207"
             style="fill:#012a4a;fill-opacity:1;fill-rule:nonzero;stroke:none;stroke-width:0.661689"
             id="path3408" />
          <path
             d="m 2364.1487,3356.5527 -81.8642,-32.1832 -1.3555,4.023 81.864,32.1832 1.3557,-4.023"
             style="fill:#011524;fill-opacity:1;fill-rule:nonzero;stroke:none;stroke-width:0.661689"
             id="path3405" />
          <path
             d="m 2367.0422,3347.9659 -81.8642,-32.1832 -1.3576,4.0293 81.864,32.1831 1.3578,-4.0292"
             style="fill:#011524;fill-opacity:1;fill-rule:nonzero;stroke:none;stroke-width:0.661689"
             id="path3402" />
          <path
             d="m 2369.9357,3339.3792 -81.8642,-32.1833 -1.3555,4.023 81.864,32.183 1.3557,-4.0227"
             style="fill:#011524;fill-opacity:1;fill-rule:nonzero;stroke:none;stroke-width:0.661689"
             id="path3399" />
          <path
             d="m 2372.8314,3330.786 -81.8642,-32.183 -1.3577,4.0291 81.8641,32.1831 1.3578,-4.0292"
             style="fill:#011524;fill-opacity:1;fill-rule:nonzero;stroke:none;stroke-width:0.661689"
             id="path3396" />
          <path
             d="m 2375.7249,3322.1992 -81.8642,-32.1832 -1.3556,4.0229 81.8641,32.1832 1.3557,-4.0229"
             style="fill:#011524;fill-opacity:1;fill-rule:nonzero;stroke:none;stroke-width:0.661689"
             id="path3393" />
          <path
             d="m 2378.6186,3313.6124 -81.8642,-32.1832 -1.3556,4.0229 81.864,32.1831 1.3558,-4.0228"
             style="fill:#011524;fill-opacity:1;fill-rule:nonzero;stroke:none;stroke-width:0.661689"
             id="path3390" />
          <path
             d="m 2381.5122,3305.0255 -81.8642,-32.1832 -1.3558,4.023 81.8643,32.1831 1.3557,-4.0229"
             style="fill:#011524;fill-opacity:1;fill-rule:nonzero;stroke:none;stroke-width:0.661689"
             id="path3387" />
          <path
             d="m 2384.4077,3296.4323 -81.8642,-32.183 -1.3577,4.0292 81.8641,32.1831 1.3578,-4.0293"
             style="fill:#011524;fill-opacity:1;fill-rule:nonzero;stroke:none;stroke-width:0.661689"
             id="path3384" />
          <path
             d="m 2387.3012,3287.8456 -81.864,-32.1831 -1.3556,4.0229 81.864,32.1831 1.3556,-4.0229"
             style="fill:#011524;fill-opacity:1;fill-rule:nonzero;stroke:none;stroke-width:0.661689"
             id="path3381" />
          <path
             d="m 2390.1947,3279.2587 -81.8641,-32.1832 -1.3556,4.0231 81.8641,32.1831 1.3556,-4.023"
             style="fill:#011524;fill-opacity:1;fill-rule:nonzero;stroke:none;stroke-width:0.661689"
             id="path3378" />
          <path
             d="m 2414.9395,3298.711 -5.6333,-2.2146 -21.6168,64.1495 5.6335,2.2145 21.6166,-64.1494"
             style="fill:#011524;fill-opacity:1;fill-rule:nonzero;stroke:none;stroke-width:0.661689"
             id="path3375" />
          <path
             d="m 2118.273,3212.6114 -0,31.7177 c 27.6648,-0.01 55.3905,-1.0911 83.0594,-3.5286 24.4844,-2.1493 49.0667,-5.3643 73.4722,-10.3985 0,0 0,0 0,0 19.5393,-3.989 39.4148,-9.244 58.6974,-17.4402 2.3671,-1.0039 4.7415,-2.0722 7.1134,-3.2156 5.6774,-2.6757 10.7279,-5.9038 14.8277,-9.5303 4.8379,-4.2193 8.0949,-9.0125 9.2174,-13.3688 1.1317,-4.3915 0.024,-7.8504 -3.02,-10.3585 -3.2542,-2.6991 -7.1068,-3.3614 -10.6137,-3.2155 -3.5462,0.1475 -7.539,1.1578 -11.6154,2.7226 0,0 0,0 0,0 -3.8804,1.4462 -8.5846,3.4761 -12.7553,5.3584 -1.8185,0.868 -3.6819,1.7086 -5.5814,2.5311 -16.3557,7.0625 -34.2162,11.6874 -52.652,15.5497 0,0 0,0 0,0 -22.8682,4.7393 -46.2428,7.7788 -69.8487,9.8721 -26.69,2.3581 -53.5481,3.3996 -80.4561,3.4123"
             style="fill:#2a6f97;fill-opacity:1;fill-rule:nonzero;stroke:none;stroke-width:8.59519;stroke-dasharray:none;stroke-opacity:1"
             id="path3372"
             sodipodi:nodetypes="cccccc"
             transform="matrix(0.93969263,0.36942008,-0.31665248,0.93969261,1459.4806,-475.80681)"
             inkscape:original-d="m 2118.2064,3212.5934 v 31.7177 l 225.4922,-0.1324 c 19.2742,0.171 34.732,-3.7857 34.7269,-15.0064 0.036,-12.8439 -18.3192,-16.3151 -35.0618,-16.6147 l -225.3235,0.1438"
             inkscape:path-effect="#path-effect2998"
             class="UnoptimicedTransforms" />
          <path
             d="m 2437.9381,3323.614 -4.387,-1.7248 -2.512,7.4542 4.3873,1.7248 2.5117,-7.4542 m -9.7923,29.0597 -4.3871,-1.7246 -2.5121,7.4545 4.3871,1.7248 2.5121,-7.4547"
             style="fill:#012a4a;fill-opacity:1;fill-rule:nonzero;stroke:none;stroke-width:1.28148"
             id="path3369" />
          <path
             d="m 2431.8385,3326.9714 4.3851,1.7239 -8.8782,26.3475 -4.3854,-1.7239 z"
             style="fill:#012a4a;fill-opacity:1;fill-rule:nonzero;stroke:none;stroke-width:1.41541"
             id="path3366" />
          <path
             d="m 2396.6082,3353.1109 15.048,-44.6566 22.8849,13.1407 -12.8232,37.1758 -25.1097,-5.6599"
             style="fill:#011524;fill-opacity:1;fill-rule:nonzero;stroke:none;stroke-width:0.661689"
             id="path3363"
             sodipodi:nodetypes="ccccc" />
          <path
             d="m 2422.765,3336.8402 -18.2556,-7.1769 -0.8445,2.5059 18.2556,7.1769 0.8445,-2.5059"
             style="fill:#011524;fill-opacity:1;fill-rule:nonzero;stroke:none;stroke-width:0.661689"
             id="path3360" />
          <path
             d="m 2298.6367,3015.1816 -96.5439,-30.3493 c -13.0229,-3.6901 -25.9044,4.2164 -28.3938,17.4335 -7.9175,42.1152 -20.0612,128.3039 4.2178,166.0433 0,0 -149.1909,-58.6513 -150.3972,-59.1257 29.3421,11.5351 36.3641,-22.4892 37.716,-31.7877 l 0.2858,-2.2889 0.011,-0.014 v 0 c 0,0 -6.1961,-82.0616 23.15,-169.1487 l 223.0777,87.6982 -0.034,0.099 c -0.9638,2.8602 -4.0564,17.1359 -13.0807,21.4323"
             style="fill:#2a6f97;fill-opacity:1;fill-rule:nonzero;stroke:none;stroke-width:0.661689"
             id="path3357" />
          <path
             d="m 2027.5196,3109.1834 c 15.2835,6.0085 24.5077,-0.3433 30.0353,-9.1196 l 69.16,27.5478 c 25.5641,10.3669 25.8377,10.2947 42.1044,16.7708 2.014,9.3613 4.9719,17.5094 9.0975,23.9267 l -150.3972,-59.1257"
             style="fill:#012a4a;fill-opacity:1;fill-rule:nonzero;stroke:none;stroke-width:0.661689"
             id="path3354"
             sodipodi:nodetypes="cccccc" />
          <path
             d="m 2154.8716,2981.929 -62.6571,-24.6324 c -8.0717,28.6547 -8.768,66.9968 -7.9697,93.6951 0.5536,18.7933 12.529,35.8099 30.0261,42.6885 14.985,5.8911 30.8219,12.1171 33.2779,13.0825 -9.2729,-20.3973 7.3228,-124.8337 7.3228,-124.8337"
             style="fill:#012a4a;fill-opacity:1;fill-rule:nonzero;stroke:none;stroke-width:0.661689"
             id="path3351" />
          <path
             d="m 2338.0493,2853.4824 -185.4411,-72.9021 c -8.6614,-3.4051 -18.049,0.8614 -20.9654,9.5166 l -39.4999,117.2188 216.8038,85.2318 39.4996,-117.2189 c 2.9167,-8.6551 -1.7355,-18.4411 -10.397,-21.8462"
             style="fill:#011524;fill-opacity:1;fill-rule:nonzero;stroke:none;stroke-width:0.661689"
             id="path3348" />
          <path
             d="m 2321.2842,2973.1324 -228.742,-89.9249 -7.2203,21.4267 228.7421,89.9252 7.2202,-21.427"
             style="fill:#011524;fill-opacity:1;fill-rule:nonzero;stroke:none;stroke-width:0.661689"
             id="path3345" />
          <path
             d="m 2189.2769,3172.7749 -54.2384,-21.3226 15.459,-45.8753 54.2381,21.3226 c -16.5289,23.0978 -15.4587,45.8753 -15.4587,45.8753"
             style="fill:#011524;fill-opacity:1;fill-rule:nonzero;stroke:none;stroke-width:0.661689"
             id="path3673" />
          <path
             d="m 2182.0949,3162.3255 -38.3269,-15.0675 10.9227,-32.4135 38.3268,15.0673 c -11.6843,16.327 -10.9226,32.4137 -10.9226,32.4137"
             style="fill:#011524;fill-opacity:1;fill-rule:nonzero;stroke:none;stroke-width:0.661689"
             id="path3675" />
          <path
             d="m 2133.8514,3304.928 -68.7383,-27.023 c -1.6042,-0.6308 -1.8478,-4.2804 -0.5396,-8.1573 l 0.046,-0.1348 c 1.3058,-3.8757 3.6636,-6.5048 5.2675,-5.8739 l 68.7385,27.023 c 1.604,0.6307 1.848,4.2801 0.5397,8.1569 l -0.045,0.1349 c -1.306,3.8759 -3.6636,6.5048 -5.268,5.8741"
             style="fill:#012a4a;fill-opacity:1;fill-rule:nonzero;stroke:none;stroke-width:1.02851"
             id="path3677" />
          <path
             d="m 2273.0065,3205.6913 -273.0132,-107.3292 c -18.0194,-7.0839 -35.5309,4.0723 -39.1363,24.9273 l -10.7682,62.4432 c -3.5971,20.8513 8.0884,43.4926 26.1013,50.5741 l 252.9857,99.4557 19.8728,-3.9961 36.8053,-109.2226 -12.8474,-16.8524"
             style="fill:#011524;fill-opacity:1;fill-rule:nonzero;stroke:none;stroke-width:0.661689"
             id="path3679" />
          <path
             d="m 2300.8811,3229.5005 -15.3394,-6.0303 -36.1829,107.376 15.3394,6.0304 36.1829,-107.3761"
             style="fill:#011524;fill-opacity:1;fill-rule:nonzero;stroke:none;stroke-width:0.661689"
             id="path3681" />
          <path
             d="m 2182.1538,3200.0774 -110.8578,-43.5816 c -21.7065,-8.5334 -45.2325,2.1454 -52.5472,23.852 l -0.268,0.7958 c -7.3168,21.7128 4.3501,46.2268 26.0567,54.7604 l 110.8578,43.5813 26.7585,-79.4079"
             style="fill:#2a6f97;fill-opacity:1;fill-rule:nonzero;stroke:none;stroke-width:0.661689"
             id="path3683" />
          <path
             d="m 2285.5417,3223.4702 -12.5352,-17.7789 -43.8307,130.0711 19.8728,-3.9961 36.4931,-108.2961"
             style="fill:#011524;fill-opacity:1;fill-rule:nonzero;stroke:none;stroke-width:0.661689"
             id="path3685" />
          <path
             d="m 2298.6567,3257.75 -6.4417,-2.5326 -18.851,55.9421 6.4418,2.5324 18.8509,-55.9419"
             style="fill:#011524;fill-opacity:1;fill-rule:nonzero;stroke:none;stroke-width:0.661689"
             id="path3687" />
          <path
             d="m 2394.4565,3275.6178 -89.91,-35.3463 -30.6306,90.8987 89.9103,35.3463 22.8093,-2.743 23.6346,-70.1373 -15.8136,-18.0184"
             style="fill:#012a4a;fill-opacity:1;fill-rule:nonzero;stroke:none;stroke-width:0.661689"
             id="path3689" />
          <path
             d="m 2326.5536,3253.4298 -20.1271,-7.9125 -27.9759,83.0207 20.1272,7.9125 27.9758,-83.0207"
             style="fill:#012a4a;fill-opacity:1;fill-rule:nonzero;stroke:none;stroke-width:0.661689"
             id="path3691" />
          <path
             d="m 2364.1487,3356.5527 -81.8642,-32.1832 -1.3555,4.023 81.864,32.1832 1.3557,-4.023"
             style="fill:#011524;fill-opacity:1;fill-rule:nonzero;stroke:none;stroke-width:0.661689"
             id="path3693" />
          <path
             d="m 2367.0422,3347.9659 -81.8642,-32.1832 -1.3576,4.0293 81.864,32.1831 1.3578,-4.0292"
             style="fill:#011524;fill-opacity:1;fill-rule:nonzero;stroke:none;stroke-width:0.661689"
             id="path3695" />
          <path
             d="m 2369.9357,3339.3792 -81.8642,-32.1833 -1.3555,4.023 81.864,32.183 1.3557,-4.0227"
             style="fill:#011524;fill-opacity:1;fill-rule:nonzero;stroke:none;stroke-width:0.661689"
             id="path3697" />
          <path
             d="m 2372.8314,3330.786 -81.8642,-32.183 -1.3577,4.0291 81.8641,32.1831 1.3578,-4.0292"
             style="fill:#011524;fill-opacity:1;fill-rule:nonzero;stroke:none;stroke-width:0.661689"
             id="path3699" />
          <path
             d="m 2375.7249,3322.1992 -81.8642,-32.1832 -1.3556,4.0229 81.8641,32.1832 1.3557,-4.0229"
             style="fill:#011524;fill-opacity:1;fill-rule:nonzero;stroke:none;stroke-width:0.661689"
             id="path3701" />
          <path
             d="m 2378.6186,3313.6124 -81.8642,-32.1832 -1.3556,4.0229 81.864,32.1831 1.3558,-4.0228"
             style="fill:#011524;fill-opacity:1;fill-rule:nonzero;stroke:none;stroke-width:0.661689"
             id="path3703" />
          <path
             d="m 2381.5122,3305.0255 -81.8642,-32.1832 -1.3558,4.023 81.8643,32.1831 1.3557,-4.0229"
             style="fill:#011524;fill-opacity:1;fill-rule:nonzero;stroke:none;stroke-width:0.661689"
             id="path3705" />
          <path
             d="m 2384.4077,3296.4323 -81.8642,-32.183 -1.3577,4.0292 81.8641,32.1831 1.3578,-4.0293"
             style="fill:#011524;fill-opacity:1;fill-rule:nonzero;stroke:none;stroke-width:0.661689"
             id="path3707" />
          <path
             d="m 2387.3012,3287.8456 -81.864,-32.1831 -1.3556,4.0229 81.864,32.1831 1.3556,-4.0229"
             style="fill:#011524;fill-opacity:1;fill-rule:nonzero;stroke:none;stroke-width:0.661689"
             id="path3709" />
          <path
             d="m 2390.1947,3279.2587 -81.8641,-32.1832 -1.3556,4.0231 81.8641,32.1831 1.3556,-4.023"
             style="fill:#011524;fill-opacity:1;fill-rule:nonzero;stroke:none;stroke-width:0.661689"
             id="path3711" />
          <path
             d="m 2414.9395,3298.711 -5.6333,-2.2146 -21.6168,64.1495 5.6335,2.2145 21.6166,-64.1494"
             style="fill:#011524;fill-opacity:1;fill-rule:nonzero;stroke:none;stroke-width:0.661689"
             id="path3713" />
          <path
             d="m 2118.273,3212.6114 -0,31.7177 c 27.6648,-0.01 55.3905,-1.0911 83.0594,-3.5286 24.4844,-2.1493 49.0667,-5.3643 73.4722,-10.3985 0,0 0,0 0,0 19.5393,-3.989 39.4148,-9.244 58.6974,-17.4402 2.3671,-1.0039 4.7415,-2.0722 7.1134,-3.2156 5.6774,-2.6757 10.7279,-5.9038 14.8277,-9.5303 4.8379,-4.2193 8.0949,-9.0125 9.2174,-13.3688 1.1317,-4.3915 0.024,-7.8504 -3.02,-10.3585 -3.2542,-2.6991 -7.1068,-3.3614 -10.6137,-3.2155 -3.5462,0.1475 -7.539,1.1578 -11.6154,2.7226 0,0 0,0 0,0 -3.8804,1.4462 -8.5846,3.4761 -12.7553,5.3584 -1.8185,0.868 -3.6819,1.7086 -5.5814,2.5311 -16.3557,7.0625 -34.2162,11.6874 -52.652,15.5497 0,0 0,0 0,0 -22.8682,4.7393 -46.2428,7.7788 -69.8487,9.8721 -26.69,2.3581 -53.5481,3.3996 -80.4561,3.4123"
             style="fill:#2a6f97;fill-opacity:1;fill-rule:nonzero;stroke:none;stroke-width:8.59519;stroke-dasharray:none;stroke-opacity:1"
             id="path3715"
             sodipodi:nodetypes="cccccc"
             transform="matrix(0.93969263,0.36942008,-0.31665248,0.93969261,1459.4806,-475.80681)"
             inkscape:original-d="m 2118.2064,3212.5934 v 31.7177 l 225.4922,-0.1324 c 19.2742,0.171 34.732,-3.7857 34.7269,-15.0064 0.036,-12.8439 -18.3192,-16.3151 -35.0618,-16.6147 l -225.3235,0.1438"
             inkscape:path-effect="#path-effect3737"
             class="UnoptimicedTransforms" />
          <path
             d="m 2437.9381,3323.614 -4.387,-1.7248 -2.512,7.4542 4.3873,1.7248 2.5117,-7.4542 m -9.7923,29.0597 -4.3871,-1.7246 -2.5121,7.4545 4.3871,1.7248 2.5121,-7.4547"
             style="fill:#012a4a;fill-opacity:1;fill-rule:nonzero;stroke:none;stroke-width:1.28148"
             id="path3717" />
          <path
             d="m 2431.8385,3326.9714 4.3851,1.7239 -8.8782,26.3475 -4.3854,-1.7239 z"
             style="fill:#012a4a;fill-opacity:1;fill-rule:nonzero;stroke:none;stroke-width:1.41541"
             id="path3719" />
          <path
             d="m 2396.6082,3353.1109 15.048,-44.6566 22.8849,13.1407 -12.8232,37.1758 -25.1097,-5.6599"
             style="fill:#011524;fill-opacity:1;fill-rule:nonzero;stroke:none;stroke-width:0.661689"
             id="path3721"
             sodipodi:nodetypes="ccccc" />
          <path
             d="m 2422.765,3336.8402 -18.2556,-7.1769 -0.8445,2.5059 18.2556,7.1769 0.8445,-2.5059"
             style="fill:#011524;fill-opacity:1;fill-rule:nonzero;stroke:none;stroke-width:0.661689"
             id="path3723" />
          <path
             d="m 2298.6367,3015.1816 -96.5439,-30.3493 c -13.0229,-3.6901 -25.9044,4.2164 -28.3938,17.4335 -7.9175,42.1152 -20.0612,128.3039 4.2178,166.0433 0,0 -149.1909,-58.6513 -150.3972,-59.1257 29.3421,11.5351 36.3641,-22.4892 37.716,-31.7877 l 0.2858,-2.2889 0.011,-0.014 v 0 c 0,0 -6.1961,-82.0616 23.15,-169.1487 l 223.0777,87.6982 -0.034,0.099 c -0.9638,2.8602 -4.0564,17.1359 -13.0807,21.4323"
             style="fill:#2a6f97;fill-opacity:1;fill-rule:nonzero;stroke:none;stroke-width:0.661689"
             id="path3725" />
          <path
             d="m 2027.5196,3109.1834 c 15.2835,6.0085 24.5077,-0.3433 30.0353,-9.1196 l 69.16,27.5478 c 25.5641,10.3669 25.8377,10.2947 42.1044,16.7708 2.014,9.3613 4.9719,17.5094 9.0975,23.9267 l -150.3972,-59.1257"
             style="fill:#012a4a;fill-opacity:1;fill-rule:nonzero;stroke:none;stroke-width:0.661689"
             id="path3727"
             sodipodi:nodetypes="cccccc" />
          <path
             d="m 2154.8716,2981.929 -62.6571,-24.6324 c -8.0717,28.6547 -8.768,66.9968 -7.9697,93.6951 0.5536,18.7933 12.529,35.8099 30.0261,42.6885 14.985,5.8911 30.8219,12.1171 33.2779,13.0825 -9.2729,-20.3973 7.3228,-124.8337 7.3228,-124.8337"
             style="fill:#012a4a;fill-opacity:1;fill-rule:nonzero;stroke:none;stroke-width:0.661689"
             id="path3729" />
          <path
             d="m 2338.0493,2853.4824 -185.4411,-72.9021 c -8.6614,-3.4051 -18.049,0.8614 -20.9654,9.5166 l -39.4999,117.2188 216.8038,85.2318 39.4996,-117.2189 c 2.9167,-8.6551 -1.7355,-18.4411 -10.397,-21.8462"
             style="fill:#011524;fill-opacity:1;fill-rule:nonzero;stroke:none;stroke-width:0.661689"
             id="path3731" />
          <path
             d="m 2321.2842,2973.1324 -228.742,-89.9249 -7.2203,21.4267 228.7421,89.9252 7.2202,-21.427"
             style="fill:#011524;fill-opacity:1;fill-rule:nonzero;stroke:none;stroke-width:0.661689"
             id="path3733" />
        </g>
      </g>
    </g>
  </g>
</svg>
